<?xml version="1.0" standalone="no"?>
<!DOCTYPE svg PUBLIC "-//W3C//DTD SVG 20010904//EN"
 "http://www.w3.org/TR/2001/REC-SVG-20010904/DTD/svg10.dtd">
<svg version="1.0" xmlns="http://www.w3.org/2000/svg"
 width="512.000000pt" height="512.000000pt" viewBox="0 0 512.000000 512.000000"
 preserveAspectRatio="xMidYMid meet">

<g transform="translate(0.000000,512.000000) scale(0.100000,-0.100000)"
fill="#000000" stroke="none">
<path d="M375 5029 c-37 -11 -342 -311 -361 -356 -19 -44 -18 -87 5 -131 11
-21 546 -563 1238 -1254 1072 -1071 1223 -1218 1261 -1229 94 -27 7 -107 1345
1229 692 691 1227 1233 1238 1254 22 44 24 86 5 131 -8 18 -87 105 -177 193
-180 177 -196 186 -281 164 -39 -10 -148 -116 -1065 -1033 l-1023 -1022 -1022
1022 c-885 883 -1028 1023 -1063 1032 -46 13 -59 13 -100 0z"/>
<path d="M375 3059 c-37 -11 -342 -311 -361 -356 -19 -44 -18 -87 5 -131 11
-21 546 -563 1238 -1254 1072 -1071 1223 -1218 1261 -1229 94 -27 7 -107 1345
1229 692 691 1227 1233 1238 1254 22 44 24 86 5 131 -8 18 -87 105 -177 193
-180 177 -196 186 -281 164 -39 -10 -148 -116 -1065 -1033 l-1023 -1022 -1022
1022 c-885 883 -1028 1023 -1063 1032 -46 13 -59 13 -100 0z"/>
</g>
</svg>
